# xmcd
#
# Track frame offsets: 
#        150
#        13461
#        25949
#        38587
#        48902
#        61082
#        72451
#        85882
#        97149
#        107868
#        120576
#        131101
#        141584
#        153854
#        166201
#        177999
#        190914
#        202512
#        215619
#        226003
#        239718
#        252801
#        265025
#        274850
#        286780
#
# Disc length: 3989 seconds
#
# Revision: 0
# Processed by: cddbd v1.5PL3 Copyright (c) Steve Scherf et al.
# Submitted via: ExactAudioCopy v0.90b4
#
DISCID=670f9319
DTITLE=Little Willie John - The Very Best of Little Willie John
DYEAR=2001
DGENRE=R&B
TTITLE0=All Around The World
TTITLE1=Home At Last
TTITLE2=I'm Sticking With You Baby
TTITLE3=Need Your Love So Bad
TTITLE4=Fever
TTITLE5=Letter From My Darling
TTITLE6=Do Something For Me
TTITLE7=Suffering With The Blues
TTITLE8=Tell It Like It Is
TTITLE9=Will The Sun Shine Tomorrow
TTITLE10=You Got To Get Up Early In The Morning
TTITLE11=Person To Person
TTITLE12=Talk To Me, Talk To Me
TTITLE13=You're A Sweetheart
TTITLE14=Let Them Talk
TTITLE15=Let Nobody Love You
TTITLE16=Leave My Kitten Alone
TTITLE17=A Cottage For Sale
TTITLE18=Flamingo
TTITLE19=Heartbreak (It's Hurtin' Me)
TTITLE20=Sleep
TTITLE21=Walk Slow
TTITLE22=(I've Got) Spring Fever
TTITLE23=Take My Love
TTITLE24=Big Blue Diamonds
EXTD=
EXTT0=
EXTT1=
EXTT2=
EXTT3=
EXTT4=
EXTT5=
EXTT6=
EXTT7=
EXTT8=
EXTT9=
EXTT10=
EXTT11=
EXTT12=
EXTT13=
EXTT14=
EXTT15=
EXTT16=
EXTT17=
EXTT18=
EXTT19=
EXTT20=
EXTT21=
EXTT22=
EXTT23=
EXTT24=
PLAYORDER=
